<svg xmlns="http://www.w3.org/2000/svg" width="21" height="21" fill="none"><g clip-path="url('#clip0_27_32720')"><path fill="url('#paint0_radial_27_32720')" d="M15.727.453H5.272A4.613 4.613 0 0 0 .66 5.066V15.52a4.613 4.613 0 0 0 4.612 4.612h10.455a4.613 4.613 0 0 0 4.613-4.612V5.066A4.613 4.613 0 0 0 15.727.453"/><path fill="url('#paint1_radial_27_32720')" d="M15.727.453H5.272A4.613 4.613 0 0 0 .66 5.066V15.52a4.613 4.613 0 0 0 4.612 4.612h10.455a4.613 4.613 0 0 0 4.613-4.612V5.066A4.613 4.613 0 0 0 15.727.453"/><path fill="#fff" d="M10.5 2.606c-2.087 0-2.35.009-3.17.046-.818.038-1.376.167-1.865.357a3.8 3.8 0 0 0-1.362.887c-.427.427-.69.856-.887 1.361-.19.49-.32 1.048-.357 1.866-.037.82-.046 1.082-.046 3.17s.009 2.35.046 3.17c.038.818.167 1.376.357 1.865.197.506.46.935.887 1.362s.856.69 1.361.887c.49.19 1.048.32 1.866.357.82.038 1.082.047 3.17.047s2.349-.01 3.169-.047c.818-.037 1.378-.167 1.867-.357.505-.196.934-.46 1.36-.887.428-.427.69-.856.888-1.362.189-.489.319-1.047.357-1.865.037-.82.047-1.082.047-3.17s-.01-2.35-.047-3.17c-.038-.818-.168-1.377-.357-1.865a3.8 3.8 0 0 0-.887-1.362 3.76 3.76 0 0 0-1.362-.887c-.49-.19-1.049-.32-1.867-.357-.82-.037-1.081-.046-3.17-.046zM9.812 3.99h.69c2.052 0 2.296.007 3.106.044.75.035 1.157.16 1.428.265.358.14.614.306.883.575.269.27.436.525.575.884.105.27.23.678.265 1.427.037.81.045 1.054.045 3.105s-.008 2.296-.045 3.106c-.034.75-.16 1.156-.265 1.427-.14.359-.306.614-.575.883-.27.27-.525.436-.883.575-.271.106-.678.23-1.428.265-.81.037-1.054.045-3.106.045-2.053 0-2.296-.008-3.107-.045-.75-.035-1.156-.16-1.427-.265a2.4 2.4 0 0 1-.884-.575 2.4 2.4 0 0 1-.576-.884c-.105-.27-.23-.677-.264-1.427-.037-.81-.045-1.054-.045-3.106 0-2.053.008-2.295.045-3.106.034-.75.16-1.156.264-1.427.14-.359.307-.615.576-.884.269-.27.525-.436.884-.575.27-.106.678-.231 1.427-.266.71-.032.984-.041 2.417-.043zm4.793 1.277a.922.922 0 1 0 0 1.845.922.922 0 0 0 0-1.846m-4.103 1.077a3.948 3.948 0 1 0 0 7.897 3.948 3.948 0 0 0 0-7.897m0 1.386a2.562 2.562 0 1 1 0 5.125 2.562 2.562 0 0 1 0-5.125"/></g><defs><radialGradient id="paint0_radial_27_32720" cx="0" cy="0" r="1" gradientTransform="matrix(0 -19.5043 18.1406 0 5.887 21.649)" gradientUnits="userSpaceOnUse"><stop stop-color="#FD5"/><stop offset=".1" stop-color="#FD5"/><stop offset=".5" stop-color="#FF543E"/><stop offset="1" stop-color="#C837AB"/></radialGradient><radialGradient id="paint1_radial_27_32720" cx="0" cy="0" r="1" gradientTransform="rotate(78.681 -2.46 -.673)scale(8.71855 35.9381)" gradientUnits="userSpaceOnUse"><stop stop-color="#3771C8"/><stop offset=".128" stop-color="#3771C8"/><stop offset="1" stop-color="#60F" stop-opacity="0"/></radialGradient><clipPath id="clip0_27_32720"><path fill="#fff" d="M.66.453h19.68v19.68H.66z"/></clipPath></defs></svg>