<svg width="21" height="21" viewBox="0 0 21 21" fill="none" xmlns="http://www.w3.org/2000/svg">
<g clip-path="url('#clip0_27_32720')">
<path d="M15.7274 0.453125H5.27241C2.725 0.453125 0.659912 2.51821 0.659912 5.06563V15.5206C0.659912 18.068 2.725 20.1331 5.27241 20.1331H15.7274C18.2748 20.1331 20.3399 18.068 20.3399 15.5206V5.06563C20.3399 2.51821 18.2748 0.453125 15.7274 0.453125Z" fill="url('#paint0_radial_27_32720')"></path>
<path d="M15.7274 0.453125H5.27241C2.725 0.453125 0.659912 2.51821 0.659912 5.06563V15.5206C0.659912 18.068 2.725 20.1331 5.27241 20.1331H15.7274C18.2748 20.1331 20.3399 18.068 20.3399 15.5206V5.06563C20.3399 2.51821 18.2748 0.453125 15.7274 0.453125Z" fill="url('#paint1_radial_27_32720')"></path>
<path d="M10.5007 2.60571C8.41292 2.60571 8.15085 2.61486 7.3309 2.65215C6.51249 2.68966 5.95384 2.81919 5.46507 3.00931C4.95939 3.20565 4.5305 3.46833 4.10323 3.89575C3.67558 4.3231 3.41289 4.75199 3.21594 5.25744C3.02529 5.74636 2.8956 6.30525 2.85878 7.12327C2.82211 7.9433 2.8125 8.20544 2.8125 10.2933C2.8125 12.3811 2.82173 12.6424 2.85893 13.4623C2.8966 14.2807 3.02614 14.8394 3.21609 15.3281C3.41259 15.8338 3.67527 16.2627 4.10269 16.69C4.52989 17.1176 4.95877 17.3809 5.46407 17.5773C5.95323 17.7674 6.51196 17.8969 7.33021 17.9344C8.15024 17.9717 8.41208 17.9809 10.4998 17.9809C12.5878 17.9809 12.849 17.9717 13.6689 17.9344C14.4874 17.8969 15.0466 17.7674 15.5358 17.5773C16.0412 17.3809 16.4695 17.1176 16.8966 16.69C17.3243 16.2627 17.5869 15.8338 17.7839 15.3284C17.9729 14.8394 18.1026 14.2806 18.1411 13.4625C18.1779 12.6425 18.1875 12.3811 18.1875 10.2933C18.1875 8.20544 18.1779 7.94345 18.1411 7.12343C18.1026 6.30501 17.9729 5.74644 17.7839 5.25767C17.5869 4.75199 17.3243 4.3231 16.8966 3.89575C16.469 3.46817 16.0414 3.20549 15.5353 3.00938C15.0452 2.81919 14.4863 2.68958 13.6679 2.65215C12.8478 2.61486 12.5868 2.60571 10.4983 2.60571H10.5007ZM9.81105 3.99108C10.0158 3.99077 10.2442 3.99108 10.5007 3.99108C12.5533 3.99108 12.7966 3.99846 13.6071 4.03528C14.3567 4.06957 14.7635 4.1948 15.0345 4.30004C15.3932 4.43934 15.649 4.60592 15.9179 4.87506C16.187 5.14413 16.3535 5.40035 16.4932 5.75913C16.5984 6.02973 16.7238 6.43655 16.7579 7.18608C16.7948 7.9965 16.8028 8.23988 16.8028 10.2915C16.8028 12.3432 16.7948 12.5866 16.7579 13.397C16.7236 14.1465 16.5984 14.5533 16.4932 14.824C16.3539 15.1828 16.187 15.4382 15.9179 15.7071C15.6489 15.9762 15.3934 16.1427 15.0345 16.2821C14.7638 16.3878 14.3567 16.5127 13.6071 16.547C12.7967 16.5838 12.5533 16.5918 10.5007 16.5918C8.44798 16.5918 8.20467 16.5838 7.39433 16.547C6.6448 16.5124 6.23797 16.3872 5.96676 16.2819C5.60806 16.1426 5.35176 15.976 5.0827 15.707C4.81363 15.4379 4.64712 15.1823 4.50744 14.8234C4.4022 14.5527 4.27682 14.1459 4.24268 13.3963C4.20586 12.5859 4.19848 12.3425 4.19848 10.2896C4.19848 8.23665 4.20586 7.99457 4.24268 7.18416C4.27697 6.43463 4.4022 6.0278 4.50744 5.75682C4.64681 5.39804 4.81363 5.14182 5.08277 4.87276C5.35191 4.60369 5.60806 4.43711 5.96683 4.2975C6.23782 4.1918 6.6448 4.06688 7.39433 4.03244C8.1035 4.00038 8.37833 3.99077 9.81105 3.98916V3.99108ZM14.6043 5.26751C14.095 5.26751 13.6818 5.68033 13.6818 6.1897C13.6818 6.699 14.095 7.1122 14.6043 7.1122C15.1136 7.1122 15.5268 6.699 15.5268 6.1897C15.5268 5.68041 15.1136 5.2672 14.6043 5.2672V5.26751ZM10.5007 6.34537C8.32052 6.34537 6.55285 8.11304 6.55285 10.2933C6.55285 12.4735 8.32052 14.2404 10.5007 14.2404C12.6809 14.2404 14.448 12.4735 14.448 10.2933C14.448 8.11312 12.6808 6.34537 10.5005 6.34537H10.5007ZM10.5007 7.73074C11.9159 7.73074 13.0632 8.87794 13.0632 10.2933C13.0632 11.7085 11.9159 12.8558 10.5007 12.8558C9.0855 12.8558 7.93822 11.7085 7.93822 10.2933C7.93822 8.87794 9.08542 7.73074 10.5007 7.73074Z" fill="white"></path>
</g>
<defs>
<radialGradient id="paint0_radial_27_32720" cx="0" cy="0" r="1" gradientUnits="userSpaceOnUse" gradientTransform="translate(5.88741 21.6489) rotate(-90) scale(19.5043 18.1406)">
<stop stop-color="#FFDD55"></stop>
<stop offset="0.1" stop-color="#FFDD55"></stop>
<stop offset="0.5" stop-color="#FF543E"></stop>
<stop offset="1" stop-color="#C837AB"></stop>
</radialGradient>
<radialGradient id="paint1_radial_27_32720" cx="0" cy="0" r="1" gradientUnits="userSpaceOnUse" gradientTransform="translate(-2.63656 1.87078) rotate(78.681) scale(8.71855 35.9381)">
<stop stop-color="#3771C8"></stop>
<stop offset="0.128" stop-color="#3771C8"></stop>
<stop offset="1" stop-color="#6600FF" stop-opacity="0"></stop>
</radialGradient>
<clipPath id="clip0_27_32720">
<rect width="19.68" height="19.68" fill="white" transform="translate(0.659912 0.453125)"></rect>
</clipPath>
</defs>
</svg>
