<svg width="25" height="21" viewBox="0 0 25 21" fill="none" xmlns="http://www.w3.org/2000/svg">
<path d="M24.8 2.7828C23.8788 3.18452 22.9017 3.44821 21.9012 3.56509C22.9433 2.95023 23.7435 1.97657 24.1203 0.816462C23.1296 1.39518 22.0457 1.80292 20.9155 2.02207C19.9948 1.05654 18.6832 0.453125 17.2315 0.453125C14.4442 0.453125 12.1844 2.67761 12.1844 5.42123C12.1844 5.81067 12.2291 6.18981 12.3151 6.55352C8.12057 6.34627 4.40175 4.36839 1.91244 1.36256C1.47809 2.09633 1.22921 2.94985 1.22921 3.86023C1.22921 5.58393 2.12029 7.10454 3.47444 7.99552C2.67297 7.97081 1.88913 7.75772 1.18837 7.37403C1.18808 7.39485 1.18808 7.41566 1.18808 7.43656C1.18808 9.84371 2.92776 11.8518 5.23651 12.3082C4.49331 12.5071 3.71374 12.5363 2.95736 12.3933C3.59956 14.3671 5.46349 15.8034 7.67191 15.8436C5.94463 17.1761 3.76839 17.9704 1.40391 17.9704C0.996472 17.9704 0.5948 17.9469 0.199951 17.901C2.43346 19.3106 5.08632 20.1331 7.93646 20.1331C17.2198 20.1331 22.2961 12.5626 22.2961 5.9974C22.2961 5.78192 22.2913 5.56766 22.2815 5.35463C23.2696 4.6515 24.1224 3.78059 24.8 2.7828Z" fill="#0D77C8"></path>
</svg>
