<svg xmlns="http://www.w3.org/2000/svg" width="25" height="21" fill="none"><path fill="#0D77C8" d="M24.8 2.783c-.921.402-1.898.665-2.899.782a5 5 0 0 0 2.22-2.749c-.991.58-2.075.987-3.205 1.206A5.08 5.08 0 0 0 17.232.453c-2.788 0-5.048 2.225-5.048 4.968q.001.586.131 1.133A14.4 14.4 0 0 1 1.912 1.363 4.9 4.9 0 0 0 1.23 3.86c0 1.724.891 3.245 2.245 4.136a5.1 5.1 0 0 1-2.286-.622v.063c0 2.407 1.74 4.415 4.049 4.871a5.1 5.1 0 0 1-2.28.085c.643 1.974 2.506 3.41 4.715 3.45a10.23 10.23 0 0 1-6.268 2.127q-.612 0-1.204-.069a14.45 14.45 0 0 0 7.736 2.232c9.284 0 14.36-7.57 14.36-14.136q0-.323-.014-.642A10.2 10.2 0 0 0 24.8 2.783"/></svg>