<svg xmlns="http://www.w3.org/2000/svg" width="25" height="21" fill="none"><path fill="#13C76F" d="m7.861 17.367.322.16c1.34.798 2.842 1.17 4.344 1.17 4.719 0 8.58-3.83 8.58-8.51a8.5 8.5 0 0 0-2.52-6.01 8.55 8.55 0 0 0-6.06-2.5c-4.72 0-8.58 3.83-8.526 8.563 0 1.596.482 3.138 1.286 4.468l.215.319-.858 3.138z"/><path fill="#fff" d="M19.498 3.325C17.675 1.464 15.154.453 12.58.453c-5.47 0-9.866 4.415-9.813 9.787 0 1.702.483 3.35 1.287 4.84L2.66 20.133l5.201-1.33c1.448.798 3.057 1.17 4.666 1.17 5.416 0 9.813-4.414 9.813-9.786a9.61 9.61 0 0 0-2.842-6.862m-6.918 15c-1.447 0-2.895-.372-4.129-1.117l-.321-.16-3.11.798.804-3.032-.215-.319C3.25 10.72 4.376 5.72 8.237 3.378c3.86-2.34 8.848-1.223 11.207 2.607s1.233 8.776-2.627 11.116c-1.234.798-2.735 1.224-4.237 1.224m4.72-5.904-.59-.266s-.859-.372-1.395-.638c-.053 0-.107-.054-.16-.054-.162 0-.269.054-.376.107 0 0-.054.053-.804.904a.3.3 0 0 1-.269.16h-.053a.4.4 0 0 1-.215-.107l-.268-.106c-.59-.266-1.126-.585-1.555-1.01-.107-.107-.268-.213-.375-.32-.376-.372-.751-.798-1.02-1.276l-.053-.107c-.053-.053-.053-.106-.107-.213 0-.106 0-.212.054-.266 0 0 .214-.266.375-.425.107-.107.16-.266.268-.372.107-.16.161-.373.107-.532-.053-.266-.697-1.702-.858-2.021-.107-.16-.214-.213-.375-.266h-.59c-.107 0-.214.053-.322.053l-.053.053c-.107.053-.215.16-.322.213-.107.106-.16.212-.268.319a2.7 2.7 0 0 0-.59 1.649c0 .425.107.85.268 1.223l.054.16a8.9 8.9 0 0 0 1.984 2.712l.214.213c.161.16.322.266.43.425a9.6 9.6 0 0 0 3.86 2.022c.161.053.376.053.537.106h.536c.268 0 .59-.106.804-.213.161-.106.268-.106.376-.212l.107-.107c.107-.106.214-.16.322-.266.107-.106.214-.212.268-.319.107-.213.16-.479.214-.745v-.372s-.053-.053-.16-.106"/></svg>