<svg width="25" height="21" viewBox="0 0 25 21" fill="none" xmlns="http://www.w3.org/2000/svg">
<path d="M7.86146 17.3673L8.18318 17.5269C9.52386 18.3247 11.0253 18.697 12.5268 18.697C17.2457 18.697 21.1066 14.8674 21.1066 10.1868C21.1066 7.95286 20.1949 5.77209 18.5863 4.17639C16.9775 2.58069 14.8325 1.67651 12.5268 1.67651C7.80788 1.67651 3.94689 5.50613 4.00055 10.24C4.00055 11.8356 4.48317 13.3782 5.2875 14.7078L5.50197 15.027L4.64406 18.1652L7.86146 17.3673Z" fill="#13C76F"></path>
<path d="M19.4978 3.32534C17.6746 1.46375 15.1543 0.453125 12.5803 0.453125C7.11075 0.453125 2.71357 4.86781 2.76715 10.2399C2.76715 11.942 3.24976 13.5909 4.05417 15.0801L2.65991 20.1331L7.86142 18.8034C9.30927 19.6013 10.9179 19.9736 12.5267 19.9736C17.9427 19.9736 22.3399 15.5588 22.3399 10.1868C22.3399 7.58051 21.321 5.13377 19.4979 3.32534H19.4978ZM12.5803 18.3248C11.1325 18.3248 9.68464 17.9525 8.45128 17.2078L8.12956 17.0483L5.0194 17.8461L5.82373 14.8143L5.60925 14.4951C3.24976 10.7188 4.37589 5.71885 8.2368 3.37848C12.0977 1.0382 17.0847 2.15519 19.4442 5.98481C21.8036 9.81442 20.6775 14.761 16.8167 17.1014C15.5832 17.8992 14.0818 18.3247 12.5803 18.3247V18.3248ZM17.2992 12.4208L16.7094 12.1549C16.7094 12.1549 15.8515 11.7825 15.3152 11.5166C15.2615 11.5166 15.2079 11.4633 15.1543 11.4633C14.9934 11.4633 14.8862 11.5166 14.7789 11.5698C14.7789 11.5698 14.7253 11.6229 13.9746 12.474C13.9209 12.5803 13.8137 12.6336 13.7064 12.6336H13.6528C13.5992 12.6336 13.492 12.5803 13.4383 12.5272L13.1702 12.4208C12.5803 12.1549 12.0441 11.8357 11.6151 11.4102C11.5079 11.3038 11.347 11.1975 11.2397 11.0911C10.8643 10.7188 10.489 10.2932 10.2209 9.8145L10.1673 9.70813C10.1137 9.65491 10.1137 9.60176 10.06 9.49539C10.06 9.38902 10.06 9.28265 10.1137 9.22943C10.1137 9.22943 10.3282 8.96346 10.489 8.80395C10.5963 8.6975 10.6499 8.53799 10.7571 8.43162C10.8643 8.27202 10.918 8.05928 10.8643 7.89969C10.8108 7.63373 10.1673 6.19762 10.0064 5.87851C9.89912 5.71892 9.79196 5.66578 9.63106 5.61255H9.04121C8.93389 5.61255 8.82673 5.66577 8.71941 5.66577L8.66575 5.71892C8.55852 5.77214 8.45128 5.87851 8.34404 5.93166C8.2368 6.03811 8.18314 6.1444 8.0759 6.25085C7.70053 6.72955 7.48605 7.31462 7.48605 7.89969C7.48605 8.32517 7.59329 8.75073 7.75419 9.12306L7.80784 9.28265C8.29046 10.2932 8.93389 11.1975 9.79196 11.9953L10.0064 12.208C10.1673 12.3676 10.3282 12.474 10.4354 12.6335C11.5615 13.591 12.8485 14.2824 14.2963 14.6547C14.4572 14.7079 14.6717 14.7079 14.8326 14.7611H15.3688C15.6369 14.7611 15.9586 14.6547 16.1732 14.5484C16.334 14.442 16.4412 14.442 16.5485 14.3356L16.6558 14.2292C16.763 14.1228 16.8703 14.0697 16.9775 13.9633C17.0847 13.8569 17.192 13.7506 17.2456 13.6441C17.3529 13.4314 17.4065 13.1654 17.4601 12.8995V12.5272C17.4601 12.5272 17.4065 12.474 17.2992 12.4208Z" fill="white"></path>
</svg>
